<?xml version="1.0" encoding="UTF-8" standalone="no"?>
<svg
   aria-hidden="true"
   role="img"
   class="iconify iconify--logos"
   width="31.88"
   height="32"
   preserveAspectRatio="xMidYMid meet"
   viewBox="0 0 256 257"
   version="1.1"
   id="svg4"
   sodipodi:docname="icon.svg"
   inkscape:version="1.3.2 (091e20e, 2023-11-25)"
   xmlns:inkscape="http://www.inkscape.org/namespaces/inkscape"
   xmlns:sodipodi="http://sodipodi.sourceforge.net/DTD/sodipodi-0.dtd"
   xmlns="http://www.w3.org/2000/svg"
   xmlns:svg="http://www.w3.org/2000/svg">
  <sodipodi:namedview
     id="namedview4"
     pagecolor="#ffffff"
     bordercolor="#000000"
     borderopacity="0.25"
     inkscape:showpageshadow="2"
     inkscape:pageopacity="0.0"
     inkscape:pagecheckerboard="0"
     inkscape:deskcolor="#d1d1d1"
     inkscape:zoom="7.5647084"
     inkscape:cx="18.573089"
     inkscape:cy="14.210726"
     inkscape:window-width="2560"
     inkscape:window-height="1440"
     inkscape:window-x="0"
     inkscape:window-y="0"
     inkscape:window-maximized="0"
     inkscape:current-layer="path4" />
  <defs
     id="defs4">
    <radialGradient
       gradientUnits="userSpaceOnUse"
       cx="127.969"
       cy="128.5"
       r="110.397"
       id="gradient-0"
       gradientTransform="matrix(0.755788, 0, 0, 0.755788, 31.281746, 31.381889)">
      <stop
         offset="0"
         style="stop-color: rgb(255, 231, 85);"
         id="stop1" />
      <stop
         offset="1"
         style="stop-color: rgb(141, 110, 41);"
         id="stop2" />
    </radialGradient>
    <radialGradient
       gradientUnits="userSpaceOnUse"
       cx="128"
       cy="128.5"
       r="83.437"
       id="gradient-1"
       gradientTransform="matrix(0.785058, -0.619423, 0.600289, 0.760807, -49.624525, 110.022364)">
      <stop
         offset="0"
         style="stop-color:#505dff;stop-opacity:1;"
         id="stop3" />
      <stop
         offset="1"
         style="stop-color:#000000;stop-opacity:1;"
         id="stop4" />
    </radialGradient>
  </defs>
  <g
     id="path4">
    <circle
       style="fill:#000000;fill-opacity:1;stroke:none;stroke-width:14.4045;stroke-dasharray:none;stroke-dashoffset:5.52944;stroke-opacity:1"
       id="path9"
       cx="128.48187"
       cy="128.5"
       r="128.5" />
    <path
       style="color:#000000;fill:#000000;stroke-linecap:round;stroke-linejoin:round;paint-order:stroke markers;fill-opacity:1;stroke-width:7.42890625;stroke-dasharray:none;stroke:#ffffff;stroke-opacity:1"
       d="m 105.41797,44.958984 c -2.57643,0 -5.0931,0.351141 -7.482423,1.011719 l 0.646484,0.302734 c -0.416211,0.07694 -0.825689,0.186654 -1.224609,0.328125 l 0.396484,-0.580078 C 87.956968,48.80094 80.446121,56.820335 78.160156,66.759766 74.112121,64.481381 69.522293,63.068806 64.582031,63.068359 h -0.002 c -15.395559,0.0014 -28.048828,12.653484 -28.048828,28.048828 0,14.597163 11.409699,26.592433 25.708984,27.814453 l 14.789063,39.4082 c -9.607089,4.47076 -16.3125,14.22294 -16.3125,25.44141 0,15.10045 12.180145,27.5111 27.179687,27.98437 0.217773,0.10172 0.440002,0.19361 0.666016,0.2754 h 79.976557 c 0.13693,-0.0523 0.27239,-0.10828 0.40625,-0.16797 15.17428,-0.26707 27.56307,-12.7791 27.56446,-28.00977 v -0.002 c -10e-4,-11.26187 -6.75955,-21.04733 -16.42579,-25.49414 l 14.77149,-39.36524 c 13.77948,-1.73199 24.61356,-13.47748 24.61328,-27.697263 0,-15.396559 -12.65422,-28.050781 -28.05078,-28.050781 -4.53533,0 -8.77029,1.201884 -12.57617,3.144531 -2.49785,-9.315754 -9.62815,-16.751023 -18.85743,-19.564453 -0.70865,-0.277023 -1.45306,-0.451948 -2.21093,-0.519531 -1.92912,-0.418911 -3.89766,-0.753906 -5.94141,-0.753906 -9.49395,0 -17.91969,4.831094 -23.00391,12.130859 -5.03244,-7.636355 -13.65641,-12.732422 -23.41015,-12.732422 z m 0,16.0625 c 6.71729,0 11.98828,5.270426 11.98828,11.986328 0,8.559795 -6.72473,9.026849 -8.36914,14.0625 -3.24606,-3.031633 -15.605469,-2.013525 -15.605469,-14.0625 0,-5.56302 3.702481,-10.115886 8.705079,-11.535156 0.0183,-0.0077 0.0365,-0.01556 0.0547,-0.02344 0.008,6.8e-4 0.0169,0.0013 0.0254,0.002 1.01067,-0.279422 2.0776,-0.429688 3.20117,-0.429688 z m 46.41406,0.601563 c 1.0527,0 2.05928,0.132724 3.01953,0.380859 l 0.0312,-0.0039 c 0.008,0.0059 0.0156,0.01173 0.0234,0.01758 5.10965,1.34982 8.91406,5.952604 8.91406,11.591797 0,6.451369 -4.90807,11.562239 -11.20703,11.962891 -1.68293,0.173639 -3.26806,0.874266 -4.5293,2.001953 -0.53897,-1.640604 -1.59234,-3.06382 -3.0039,-4.058594 -3.16105,-2.162541 -5.23438,-5.734827 -5.23438,-9.90625 0,-6.716811 5.27182,-11.986328 11.98633,-11.986328 z M 64.580078,79.130859 c 16.004621,2.537033 11.535646,14.878478 6.824219,24.726561 -1.492913,-0.81086 -3.204488,-1.12746 -4.888672,-0.90429 -0.624826,0.10095 -1.270837,0.15429 -1.935547,0.15429 -6.71451,0 -11.986328,-5.272029 -11.986328,-11.990233 0,-6.711962 5.272868,-11.984667 11.986328,-11.986328 z m 126.837892,0.185547 c 6.71542,0 11.98828,5.272863 11.98828,11.988281 6.1e-4,6.713149 -5.27286,11.986333 -11.98828,11.986333 -0.45452,0 -0.89703,-0.0242 -1.33399,-0.0723 -1.62145,-0.13105 -3.24447,0.23333 -4.65429,1.04492 -0.30306,-1.64023 -1.10924,-3.14542 -2.30664,-4.306639 -2.28428,-2.191657 -3.69141,-5.204464 -3.69141,-8.652344 0,-6.715902 5.27091,-11.988281 11.98633,-11.988281 z m -78.83008,21.359374 8.68555,19.11719 c 2.85411,6.27609 11.76893,6.27609 14.62304,0 l 8.40625,-18.5 -3.80664,39.03711 c -0.76636,7.89476 9.15806,12.00432 14.19727,5.8789 l 23.54101,-28.6289 -16.3125,43.46484 c -1.91233,5.09788 1.6944,10.58106 7.13282,10.84375 6.39778,0.30903 11.39197,5.45787 11.39258,11.97461 -0.002,6.69998 -5.24914,11.96022 -11.93946,11.98633 -0.10375,0.0408 -0.20663,0.0838 -0.30859,0.12891 H 89.138672 c -0.16234,-0.0752 -0.327146,-0.14485 -0.494141,-0.20899 -6.650132,-0.0673 -11.865234,-5.31364 -11.865234,-11.98828 0,-6.48868 4.958967,-11.62016 11.314453,-11.96875 5.412925,-0.29874 8.981453,-5.76378 7.078125,-10.83984 L 78.658203,116.9668 102.19922,145.5957 c 5.0398,6.12664 14.96592,2.01499 14.19726,-5.88086 z"
       id="path5"
       sodipodi:nodetypes="ccccccsssccsccccsscccscccsccccscscccccscccscccssscccsscscscccsssccccccccscccccscccccc" />
    <path
       style="color:#000000;fill:url(#gradient-0);stroke-linecap:round;stroke-linejoin:round;paint-order:stroke markers;stroke:none;stroke-opacity:1;stroke-width:0;stroke-dasharray:none"
       d="M 108.403,140.495 103.767,92.96 C 93.484,92.121 85.4,83.508 85.4,73.008 85.4,63.85 91.549,56.129 99.945,53.747 l -0.041,-0.414 0.172,0.378 c 1.7,-0.47 3.492,-0.721 5.342,-0.721 11.057,0 20.019,8.962 20.019,20.018 0,6.985 -3.578,13.135 -9.001,16.717 l 12.149,26.746 11.96,-26.326 c -5.271,-3.606 -8.73,-9.667 -8.73,-16.535 0,-11.057 8.963,-20.019 20.018,-20.019 1.737,0 3.422,0.222 5.028,0.637 l 0.128,-0.281 -0.031,0.306 c 8.574,2.265 14.894,10.073 14.894,19.357 0,10.622 -8.274,19.313 -18.729,19.978 l -4.633,47.521 29.073,-35.356 c -3.798,-3.644 -6.163,-8.771 -6.163,-14.449 0,-11.056 8.962,-20.019 20.018,-20.019 11.056,0 20.019,8.963 20.019,20.019 10e-4,11.055 -8.963,20.018 -20.019,20.018 -0.748,0 -1.485,-0.041 -2.212,-0.121 l -19.764,52.666 c 10.6,0.512 19.036,9.268 19.037,19.995 -0.001,11.03 -8.92,19.975 -19.94,20.018 v 0.129 H 88.563 V 203.8 c -10.962,-0.111 -19.814,-9.03 -19.814,-20.018 0,-10.682 8.366,-19.41 18.904,-19.988 L 67.796,110.881 c -1.046,0.169 -2.12,0.257 -3.215,0.257 -11.055,0 -20.018,-8.962 -20.018,-20.02 0,-11.054 8.963,-20.017 20.018,-20.018 11.056,0.001 20.019,8.964 20.018,20.019 0,5.332 -2.083,10.175 -5.481,13.763 z"
       id="path6" />
  </g>
</svg>
