<?xml version="1.0" encoding="utf-8"?>
<svg xmlns="http://www.w3.org/2000/svg" aria-hidden="true" role="img" class="iconify iconify--logos" width="31.88" height="32" preserveAspectRatio="xMidYMid meet" viewBox="0 0 256 257">
  <defs>
    <radialGradient gradientUnits="userSpaceOnUse" cx="127.969" cy="128.5" r="110.397" id="gradient-0" gradientTransform="matrix(0.755788, 0, 0, 0.755788, 31.281746, 31.381889)">
      <stop offset="0" style="stop-color: rgb(255, 231, 85);"/>
      <stop offset="1" style="stop-color: rgb(141, 110, 41);"/>
    </radialGradient>
    <radialGradient gradientUnits="userSpaceOnUse" cx="128" cy="128.5" r="83.437" id="gradient-1" gradientTransform="matrix(0.785058, -0.619423, 0.600289, 0.760807, -49.624525, 110.022364)">
      <stop offset="0" style=""/>
      <stop offset="1" style="stop-color: rgb(73, 73, 73);"/>
    </radialGradient>
  </defs>
  <rect x="40.137" y="39.49" width="175.725" height="178.02" style="stroke: rgb(0, 0, 0); stroke-linecap: round; stroke-linejoin: round; stroke-width: 34px;"/>
  <path d="M 108.403 140.495 L 103.767 92.96 C 93.484 92.121 85.4 83.508 85.4 73.008 C 85.4 63.85 91.549 56.129 99.945 53.747 L 99.904 53.333 L 100.076 53.711 C 101.776 53.241 103.568 52.99 105.418 52.99 C 116.475 52.99 125.437 61.952 125.437 73.008 C 125.437 79.993 121.859 86.143 116.436 89.725 L 128.585 116.471 L 140.545 90.145 C 135.274 86.539 131.815 80.478 131.815 73.61 C 131.815 62.553 140.778 53.591 151.833 53.591 C 153.57 53.591 155.255 53.813 156.861 54.228 L 156.989 53.947 L 156.958 54.253 C 165.532 56.518 171.852 64.326 171.852 73.61 C 171.852 84.232 163.578 92.923 153.123 93.588 L 148.49 141.109 L 177.563 105.753 C 173.765 102.109 171.4 96.982 171.4 91.304 C 171.4 80.248 180.362 71.285 191.418 71.285 C 202.474 71.285 211.437 80.248 211.437 91.304 C 211.438 102.359 202.474 111.322 191.418 111.322 C 190.67 111.322 189.933 111.281 189.206 111.201 L 169.442 163.867 C 180.042 164.379 188.478 173.135 188.479 183.862 C 188.478 194.892 179.559 203.837 168.539 203.88 L 168.539 204.009 L 88.563 204.009 L 88.563 203.8 C 77.601 203.689 68.749 194.77 68.749 183.782 C 68.749 173.1 77.115 164.372 87.653 163.794 L 67.796 110.881 C 66.75 111.05 65.676 111.138 64.581 111.138 C 53.526 111.138 44.563 102.176 44.563 91.118 C 44.563 80.064 53.526 71.101 64.581 71.1 C 75.637 71.101 84.6 80.064 84.599 91.119 C 84.599 96.451 82.516 101.294 79.118 104.882 L 108.403 140.495 Z" style="paint-order: stroke markers; fill: url(&quot;#gradient-0&quot;); fill-rule: nonzero; stroke-linecap: round; stroke-linejoin: round; stroke-width: 32px; stroke: url(&quot;#gradient-1&quot;);"/>
</svg>